<?xml version="1.0" encoding="UTF-8" standalone="no"?>
<!-- Created with Inkscape (http://www.inkscape.org/) -->

<svg
   xmlns:dc="http://purl.org/dc/elements/1.1/"
   xmlns:cc="http://creativecommons.org/ns#"
   xmlns:rdf="http://www.w3.org/1999/02/22-rdf-syntax-ns#"
   xmlns:svg="http://www.w3.org/2000/svg"
   xmlns="http://www.w3.org/2000/svg"
   xmlns:sodipodi="http://sodipodi.sourceforge.net/DTD/sodipodi-0.dtd"
   xmlns:inkscape="http://www.inkscape.org/namespaces/inkscape"
   width="58.208332mm"
   height="58.208332mm"
   viewBox="0 0 58.208332 58.208332"
   version="1.1"
   id="svg8"
   inkscape:version="0.92.2 (5c3e80d, 2017-08-06)"
   sodipodi:docname="logo2b.svg"
   inkscape:export-filename="C:\Users\franc\Desktop\CvSite\images\logo2.png"
   inkscape:export-xdpi="96"
   inkscape:export-ydpi="96">
  <defs
     id="defs2" />
  <sodipodi:namedview
     id="base"
     pagecolor="#ffffff"
     bordercolor="#666666"
     borderopacity="1.0"
     inkscape:pageopacity="0.0"
     inkscape:pageshadow="2"
     inkscape:zoom="0.98994949"
     inkscape:cx="-14.334582"
     inkscape:cy="21.719763"
     inkscape:document-units="mm"
     inkscape:current-layer="layer1"
     showgrid="false"
     inkscape:window-width="1920"
     inkscape:window-height="1001"
     inkscape:window-x="-9"
     inkscape:window-y="-9"
     inkscape:window-maximized="1" />
  <metadata
     id="metadata5">
    <rdf:RDF>
      <cc:Work
         rdf:about="">
        <dc:format>image/svg+xml</dc:format>
        <dc:type
           rdf:resource="http://purl.org/dc/dcmitype/StillImage" />
        <dc:title></dc:title>
      </cc:Work>
    </rdf:RDF>
  </metadata>
  <g
     inkscape:label="Layer 1"
     inkscape:groupmode="layer"
     id="layer1"
     transform="translate(-65.768079,-50.559705)">
    <g
       id="g827"
       transform="translate(19.654762,8.3154762)">
      <path
         style="opacity:1;fill:#000000;fill-opacity:1;stroke:#000000;stroke-width:0;stroke-miterlimit:4;stroke-dasharray:none;stroke-opacity:1"
         d="m 358.57227,191.0918 a 110,110 0 0 0 -110,110 110,110 0 0 0 110,110 110,110 0 0 0 110,-110 110,110 0 0 0 -110,-110 z m -28.42383,35.83398 c 3.57635,0 7.08464,0.17628 10.52344,0.5293 3.4388,0.29418 6.5669,0.64869 9.38671,1.06054 v 15.17969 h -1.03125 c -1.7194,-0.52952 -4.19526,-1.03126 -7.42773,-1.50195 -3.23247,-0.52953 -6.1213,-0.79297 -8.66602,-0.79297 -8.18434,0 -14.02953,1.58848 -17.53711,4.76563 -3.43879,3.1183 -5.1582,8.79617 -5.1582,17.0332 v 3.35351 h 32.08399 v 13.76758 h -31.46485 v 84.81055 h -19.39453 v -84.81055 h -13.10156 v -13.76758 h 13.10156 v -3.26562 c 0,-11.88486 3.33459,-20.91598 10.00586,-27.09375 6.67127,-6.17777 16.23124,-9.26758 28.67969,-9.26758 z m 72.31836,37.33203 c 6.32739,0 12.41381,0.76519 18.25976,2.29492 5.91474,1.52974 11.17717,3.29451 15.78516,5.29493 v 18.62109 h -1.13477 c -1.37551,-1.00021 -3.1644,-2.14702 -5.36523,-3.44141 -2.13206,-1.29439 -4.74493,-2.61943 -7.83984,-3.97265 -2.68227,-1.17672 -5.84707,-2.20535 -9.49219,-3.08789 -3.64513,-0.88254 -7.15147,-1.32422 -10.52149,-1.32422 -10.04129,0 -18.12308,3.26609 -24.24414,9.79687 -6.05228,6.47195 -9.07812,15.6503 -9.07812,27.53516 0,11.64951 2.92162,20.73874 8.76758,27.26953 5.91473,6.47195 14.10074,9.70899 24.55468,9.70898 6.32739,10e-6 12.34433,-1.11775 18.05274,-3.35351 5.7084,-2.23577 10.76435,-5.12024 15.16601,-8.65039 h 1.13477 v 18.62305 c -1.92573,0.76486 -4.33407,1.70633 -7.22266,2.82421 -2.88859,1.05905 -5.50146,1.85329 -7.83984,2.38282 -3.30125,0.8237 -6.25956,1.44166 -8.87305,1.85351 -2.61349,0.47069 -5.98282,0.70508 -10.10937,0.70508 -7.90924,0 -15.16509,-1.02863 -21.76758,-3.08789 -6.60249,-2.11809 -12.27594,-5.29702 -17.02149,-9.5332 -4.74554,-4.23619 -8.42557,-9.55955 -11.03906,-15.97266 -2.61349,-6.47195 -3.91992,-14.06182 -3.91992,-22.76953 0,-8.64888 1.34117,-16.12058 4.02344,-22.41602 2.75104,-6.29544 6.39633,-11.59169 10.93554,-15.88671 4.53922,-4.29503 10.17793,-7.59017 16.91797,-9.88477 6.80882,-2.35344 14.09941,-3.5293 21.8711,-3.5293 z"
         transform="matrix(0.26458333,0,0,0.26458333,-19.654762,-8.3154762)"
         id="path817"
         inkscape:connector-curvature="0" />
      <g
         id="g841">
        <path
           id="path815"
           d="M 71.059525,79.285713 A 12.095239,20.410715 0 0 1 58.964287,99.696428 12.095239,20.410715 0 0 1 46.869048,79.285713 12.095239,20.410715 0 0 1 58.964287,58.874998 12.095239,20.410715 0 0 1 71.059525,79.285713 Z"
           style="opacity:1;fill:#ff6600;fill-opacity:0;stroke:#000000;stroke-width:0;stroke-miterlimit:4;stroke-dasharray:none;stroke-opacity:1"
           inkscape:connector-curvature="0" />
        <g
           id="text821"
           style="font-style:normal;font-weight:normal;font-size:51.70389557px;line-height:1.25;font-family:sans-serif;letter-spacing:0px;word-spacing:0px;fill:#ffffff;fill-opacity:1;stroke:none;stroke-width:1.29259729"
           transform="matrix(1.0811777,0,0,0.92491731,-0.40367551,1.1697203)"
           aria-label="fc" />
      </g>
    </g>
  </g>
</svg>
